<?xml version="1.0" standalone="no"?>
<!DOCTYPE svg PUBLIC "-//W3C//DTD SVG 20010904//EN"
 "http://www.w3.org/TR/2001/REC-SVG-20010904/DTD/svg10.dtd">
<svg version="1.0" xmlns="http://www.w3.org/2000/svg"
 width="64.000000pt" height="64.000000pt" viewBox="0 0 64.000000 64.000000"
 preserveAspectRatio="xMidYMid meet">

<g transform="translate(0.000000,64.000000) scale(0.100000,-0.100000)"
fill="#BE8C4C" stroke="none">
<path d="M159 624 c-15 -18 -2 -47 24 -52 22 -5 42 35 26 54 -15 18 -33 18
-50 -2z"/>
<path d="M460 625 c0 -8 9 -15 20 -15 11 0 20 7 20 15 0 8 -9 15 -20 15 -11 0
-20 -7 -20 -15z"/>
<path d="M460 553 c0 -16 -11 -46 -25 -68 -41 -67 -36 -75 45 -75 81 0 86 8
45 75 -14 22 -25 52 -25 68 0 20 -5 27 -20 27 -15 0 -20 -7 -20 -27z"/>
<path d="M160 515 c0 -28 4 -35 19 -35 12 0 21 9 25 25 8 32 1 45 -25 45 -15
0 -19 -7 -19 -35z"/>
<path d="M73 444 c-8 -22 13 -42 29 -26 16 16 133 16 158 0 17 -11 22 -10 30
2 19 30 -9 40 -112 40 -80 0 -100 -3 -105 -16z"/>
<path d="M140 402 c0 -10 18 -116 25 -149 6 -24 35 -32 36 -10 0 6 6 47 13 90
12 72 11 77 -6 77 -14 0 -18 -8 -18 -41 0 -24 -4 -38 -10 -34 -5 3 -10 22 -10
41 0 24 -5 34 -15 34 -8 0 -15 -4 -15 -8z"/>
<path d="M410 350 l0 -40 70 0 70 0 0 40 0 40 -70 0 -70 0 0 -40z"/>
<path d="M410 260 l0 -30 70 0 70 0 0 30 0 30 -70 0 -70 0 0 -30z"/>
<path d="M2 218 l3 -33 315 0 315 0 3 33 c3 30 2 32 -31 32 -26 0 -36 -5 -40
-20 -5 -18 -14 -20 -87 -20 -73 0 -82 2 -87 20 -5 18 -14 20 -89 20 -49 0 -84
-4 -84 -10 0 -5 14 -10 30 -10 17 0 30 -4 30 -10 0 -6 -40 -10 -100 -10 -60 0
-100 4 -100 10 0 6 14 10 30 10 17 0 30 5 30 10 0 6 -30 10 -71 10 l-70 0 3
-32z"/>
<path d="M50 80 c0 -73 2 -80 20 -80 18 0 20 7 20 80 0 73 -2 80 -20 80 -18 0
-20 -7 -20 -80z"/>
<path d="M110 145 c0 -13 30 -15 210 -15 180 0 210 2 210 15 0 13 -30 15 -210
15 -180 0 -210 -2 -210 -15z"/>
<path d="M550 80 c0 -73 2 -80 20 -80 18 0 20 7 20 80 0 73 -2 80 -20 80 -18
0 -20 -7 -20 -80z"/>
</g>
</svg>
